<?xml version="1.0" standalone="no"?>
<!DOCTYPE svg PUBLIC "-//W3C//DTD SVG 20010904//EN"
 "http://www.w3.org/TR/2001/REC-SVG-20010904/DTD/svg10.dtd">
<svg version="1.0" xmlns="http://www.w3.org/2000/svg"
 width="55.000000pt" height="47.000000pt" viewBox="0 0 55.000000 47.000000"
 preserveAspectRatio="xMidYMid meet">

<g transform="translate(0.000000,47.000000) scale(0.100000,-0.100000)"
fill="#000000" stroke="none">
<path d="M320 215 c0 -140 2 -165 15 -165 13 0 15 25 15 165 0 140 -2 165 -15
165 -13 0 -15 -25 -15 -165z"/>
<path d="M430 175 c0 -104 2 -125 15 -125 13 0 15 21 15 125 0 104 -2 125 -15
125 -13 0 -15 -21 -15 -125z"/>
<path d="M210 160 c0 -91 3 -110 15 -110 12 0 15 19 15 110 0 91 -3 110 -15
110 -12 0 -15 -19 -15 -110z"/>
</g>
</svg>
